<svg width="200" height="57" viewBox="0 0 200 57" fill="none" xmlns="http://www.w3.org/2000/svg">
<path d="M19 28.5C19 25.9804 20.0009 23.5641 21.7825 21.7825C23.5641 20.0009 25.9804 19 28.5 19C31.0196 19 33.4359 20.0009 35.2175 21.7825C36.9991 23.5641 38 25.9804 38 28.5C38 31.0196 36.9991 33.4359 35.2175 35.2175C33.4359 36.9991 31.0196 38 28.5 38C25.9804 38 23.5641 36.9991 21.7825 35.2175C20.0009 33.4359 19 31.0196 19 28.5V28.5Z" fill="#1ABCFE"/>
<path d="M0 47.5C0 44.9804 1.00089 42.5641 2.78249 40.7825C4.56408 39.0009 6.98044 38 9.5 38H19V47.5C19 50.0196 17.9991 52.4359 16.2175 54.2175C14.4359 55.9991 12.0196 57 9.5 57C6.98044 57 4.56408 55.9991 2.78249 54.2175C1.00089 52.4359 0 50.0196 0 47.5H0Z" fill="#0ACF83"/>
<path d="M19 0V19H28.5C31.0196 19 33.4359 17.9991 35.2175 16.2175C36.9991 14.4359 38 12.0196 38 9.5C38 6.98044 36.9991 4.56408 35.2175 2.78249C33.4359 1.00089 31.0196 0 28.5 0L19 0Z" fill="#FF7262"/>
<path d="M0 9.5C0 12.0196 1.00089 14.4359 2.78249 16.2175C4.56408 17.9991 6.98044 19 9.5 19H19V0H9.5C6.98044 0 4.56408 1.00089 2.78249 2.78249C1.00089 4.56408 0 6.98044 0 9.5H0Z" fill="#F24E1E"/>
<path d="M0 28.5C0 31.0196 1.00089 33.4359 2.78249 35.2175C4.56408 36.9991 6.98044 38 9.5 38H19V19H9.5C6.98044 19 4.56408 20.0009 2.78249 21.7825C1.00089 23.5641 0 25.9804 0 28.5H0Z" fill="#A259FF"/>
<path d="M61 7V45.7692L66 45.7885V27.3269H78.0192V22.4423H65.9808V11.8654H81.6538V7H61ZM90.6154 14.8846C91.4824 14.8846 92.314 14.5402 92.9271 13.9271C93.5402 13.314 93.8846 12.4824 93.8846 11.6154C93.8846 10.7483 93.5402 9.91679 92.9271 9.30369C92.314 8.69059 91.4824 8.34615 90.6154 8.34615C89.7483 8.34615 88.9168 8.69059 88.3037 9.30369C87.6906 9.91679 87.3462 10.7483 87.3462 11.6154C87.3462 12.4824 87.6906 13.314 88.3037 13.9271C88.9168 14.5402 89.7483 14.8846 90.6154 14.8846V14.8846ZM88.0962 19.75V45.7885H93.0962V19.75H88.0962V19.75Z" fill="white"/>
<path fill-rule="evenodd" clip-rule="evenodd" d="M111.577 19C104.962 19 100.346 24.5962 100.346 31.25C100.346 37.9038 104.962 43.5 111.577 43.5C114.615 43.5 117.115 42.3462 118.942 40.4231V43.8846C118.955 44.9189 118.763 45.9455 118.376 46.9049C117.99 47.8644 117.417 48.7378 116.691 49.4745C115.965 50.2113 115.1 50.7968 114.146 51.1973C113.193 51.5978 112.169 51.8052 111.135 51.8077C109.539 51.8077 107.962 51.1923 106.712 50.3077L104.212 54.6346C106.145 55.8842 108.379 56.5888 110.679 56.6742C112.98 56.7596 115.26 56.2226 117.281 55.1198C119.301 54.017 120.987 52.3894 122.159 50.4086C123.331 48.4277 123.948 46.1672 123.942 43.8654V19.7692H118.942V22.0962C117.115 20.1731 114.615 19.0192 111.577 19.0192V19ZM105.327 31.25C105.327 27.1154 108.481 23.8654 112.135 23.8654C115.789 23.8654 118.923 27.1346 118.923 31.25C118.923 35.3846 115.769 38.6154 112.135 38.6154C108.481 38.6154 105.327 35.3846 105.327 31.25Z" fill="white"/>
<path d="M141.904 23.8655C140.474 23.8907 139.111 24.4779 138.111 25.4999C137.11 26.522 136.552 27.8968 136.558 29.327V45.7885H131.558V19.7501H136.558V22.1347C137.306 21.1432 138.277 20.3425 139.394 19.7978C140.51 19.2531 141.739 18.9798 142.981 19.0001C146.481 19.0001 149.173 20.7309 150.711 23.3847C151.57 22.0543 152.744 20.9574 154.13 20.1923C155.517 19.4271 157.071 19.0175 158.654 19.0001C164.327 19.0001 167.885 23.577 167.885 29.2501V45.7885H162.923V29.3078C162.928 27.8776 162.37 26.5028 161.37 25.4807C160.369 24.4586 159.007 23.8715 157.577 23.8462C156.147 23.8715 154.784 24.4586 153.784 25.4807C152.783 26.5028 152.225 27.8776 152.231 29.3078V45.7693H147.231V29.3078C147.236 27.8808 146.681 26.5089 145.684 25.4873C144.688 24.4658 143.33 23.8765 141.904 23.8462V23.8655Z" fill="white"/>
<path fill-rule="evenodd" clip-rule="evenodd" d="M194.481 22.7114C193.346 21.5274 191.98 20.5876 190.469 19.9494C188.958 19.3113 187.333 18.9881 185.692 18.9998C178.269 18.9998 173 25.269 173 32.769C173 40.269 178.269 46.5383 185.692 46.5383C187.332 46.5466 188.957 46.2219 190.467 45.584C191.978 44.946 193.343 44.008 194.481 42.8267V45.7883H199.462V19.7498H194.462V22.7114H194.481ZM177.981 32.769C177.981 27.8075 181.789 23.8652 186.231 23.8652C190.654 23.8652 194.481 27.8075 194.481 32.769C194.481 37.7306 190.673 41.6537 186.231 41.6537C181.808 41.6537 177.981 37.7306 177.981 32.769V32.769Z" fill="white"/>
</svg>
