<svg width="147" height="57" viewBox="0 0 147 57" fill="none" xmlns="http://www.w3.org/2000/svg">
<g clip-path="url(#clip0_435_653)">
<path d="M19 28.5C19 25.9804 20.0009 23.5641 21.7825 21.7825C23.5641 20.0009 25.9804 19 28.5 19C31.0196 19 33.4359 20.0009 35.2175 21.7825C36.9991 23.5641 38 25.9804 38 28.5C38 31.0196 36.9991 33.4359 35.2175 35.2175C33.4359 36.9991 31.0196 38 28.5 38C25.9804 38 23.5641 36.9991 21.7825 35.2175C20.0009 33.4359 19 31.0196 19 28.5V28.5Z" fill="#1ABCFE"/>
<path d="M0 47.5C0 44.9804 1.00089 42.5641 2.78249 40.7825C4.56408 39.0009 6.98044 38 9.5 38H19V47.5C19 50.0196 17.9991 52.4359 16.2175 54.2175C14.4359 55.9991 12.0196 57 9.5 57C6.98044 57 4.56408 55.9991 2.78249 54.2175C1.00089 52.4359 0 50.0196 0 47.5H0Z" fill="#0ACF83"/>
<path d="M19 0V19H28.5C31.0196 19 33.4359 17.9991 35.2175 16.2175C36.9991 14.4359 38 12.0196 38 9.5C38 6.98044 36.9991 4.56408 35.2175 2.78249C33.4359 1.00089 31.0196 0 28.5 0L19 0Z" fill="#FF7262"/>
<path d="M0 9.5C0 12.0196 1.00089 14.4359 2.78249 16.2175C4.56408 17.9991 6.98044 19 9.5 19H19V0H9.5C6.98044 0 4.56408 1.00089 2.78249 2.78249C1.00089 4.56408 0 6.98044 0 9.5H0Z" fill="#F24E1E"/>
<path d="M0 28.5C0 31.0196 1.00089 33.4359 2.78249 35.2175C4.56408 36.9991 6.98044 38 9.5 38H19V19H9.5C6.98044 19 4.56408 20.0009 2.78249 21.7825C1.00089 23.5641 0 25.9804 0 28.5H0Z" fill="#A259FF"/>
</g>
<g clip-path="url(#clip1_435_653)">
<path d="M74.52 15V35.16L77.12 35.17V25.57H83.37V23.03H77.11V17.53H85.26V15H74.52ZM89.92 19.1C90.3709 19.1 90.8033 18.9209 91.1221 18.6021C91.4409 18.2833 91.62 17.8509 91.62 17.4C91.62 16.9491 91.4409 16.5167 91.1221 16.1979C90.8033 15.8791 90.3709 15.7 89.92 15.7C89.4692 15.7 89.0367 15.8791 88.7179 16.1979C88.3991 16.5167 88.22 16.9491 88.22 17.4C88.22 17.8509 88.3991 18.2833 88.7179 18.6021C89.0367 18.9209 89.4692 19.1 89.92 19.1V19.1ZM88.61 21.63V35.17H91.21V21.63H88.61V21.63Z" fill="white"/>
<path fill-rule="evenodd" clip-rule="evenodd" d="M100.82 21.2402C97.38 21.2402 94.98 24.1502 94.98 27.6102C94.98 31.0702 97.38 33.9802 100.82 33.9802C102.4 33.9802 103.7 33.3802 104.65 32.3802V34.1802C104.657 34.7181 104.557 35.2519 104.356 35.7508C104.155 36.2497 103.857 36.7039 103.479 37.087C103.102 37.4701 102.652 37.7746 102.156 37.9828C101.66 38.1911 101.128 38.299 100.59 38.3002C99.76 38.3002 98.94 37.9802 98.29 37.5202L96.99 39.7702C97.9952 40.42 99.1572 40.7864 100.353 40.8308C101.549 40.8752 102.735 40.596 103.786 40.0225C104.837 39.4491 105.713 38.6027 106.323 37.5727C106.932 36.5427 107.253 35.3672 107.25 34.1702V21.6402H104.65V22.8502C103.7 21.8502 102.4 21.2502 100.82 21.2502V21.2402ZM97.57 27.6102C97.57 25.4602 99.21 23.7702 101.11 23.7702C103.01 23.7702 104.64 25.4702 104.64 27.6102C104.64 29.7602 103 31.4402 101.11 31.4402C99.21 31.4402 97.57 29.7602 97.57 27.6102V27.6102Z" fill="white"/>
<path d="M116.59 23.7698C115.846 23.7829 115.138 24.0883 114.618 24.6197C114.097 25.1512 113.807 25.8661 113.81 26.6098V35.1698H111.21V21.6298H113.81V22.8698C114.199 22.3543 114.704 21.9379 115.285 21.6546C115.865 21.3714 116.504 21.2292 117.15 21.2398C118.97 21.2398 120.37 22.1398 121.17 23.5198C121.616 22.828 122.227 22.2576 122.948 21.8597C123.669 21.4619 124.477 21.2489 125.3 21.2398C128.25 21.2398 130.1 23.6198 130.1 26.5698V35.1698H127.52V26.5998C127.523 25.8561 127.233 25.1412 126.712 24.6097C126.192 24.0783 125.484 23.7729 124.74 23.7598C123.996 23.7729 123.288 24.0783 122.768 24.6097C122.247 25.1412 121.957 25.8561 121.96 26.5998V35.1598H119.36V26.5998C119.363 25.8578 119.074 25.1444 118.556 24.6132C118.038 24.082 117.332 23.7755 116.59 23.7598V23.7698Z" fill="white"/>
<path fill-rule="evenodd" clip-rule="evenodd" d="M143.93 23.1699C143.34 22.5543 142.63 22.0656 141.844 21.7337C141.058 21.4019 140.213 21.2338 139.36 21.2399C135.5 21.2399 132.76 24.4999 132.76 28.3999C132.76 32.2999 135.5 35.5599 139.36 35.5599C140.213 35.5642 141.057 35.3954 141.843 35.0637C142.629 34.7319 143.339 34.2441 143.93 33.6299V35.1699H146.52V21.6299H143.92V23.1699H143.93ZM135.35 28.3999C135.35 25.8199 137.33 23.7699 139.64 23.7699C141.94 23.7699 143.93 25.8199 143.93 28.3999C143.93 30.9799 141.95 33.0199 139.64 33.0199C137.34 33.0199 135.35 30.9799 135.35 28.3999V28.3999Z" fill="white"/>
</g>
<defs>
<clipPath id="clip0_435_653">
<rect width="38" height="57" fill="white"/>
</clipPath>
<clipPath id="clip1_435_653">
<rect width="73" height="26" fill="white" transform="translate(74 15)"/>
</clipPath>
</defs>
</svg>
