<svg width="917" height="185" viewBox="0 0 917 185" fill="none" xmlns="http://www.w3.org/2000/svg">
<path d="M769.06 0.0700073V29.54H705.72V184.58H674.05V29.54H609.39V0.0700073H769.06ZM776.18 167.01C778.41 167.01 780.36 167.81 782.02 169.42C783.7 171.03 784.53 172.95 784.55 175.19C784.53 176.71 784.14 178.11 783.37 179.36C782.58 180.63 781.57 181.62 780.3 182.34C779.06 183.08 777.68 183.46 776.18 183.46C773.86 183.46 771.89 182.66 770.24 181.05C768.59 179.44 767.77 177.5 767.79 175.19C767.77 172.95 768.59 171.02 770.24 169.42C771.89 167.82 773.86 167.01 776.18 167.01ZM148.45 184.59L31.67 39.44V184.52H0V0H39.59L187.13 183.21V29.55L187.12 0.0799561H346.79V29.55H218.8V76.96H321.73V106.43H218.8V155.12H346.79V184.59H148.46H148.45ZM448.29 106.15L469.05 131.96L426.52 184.82H384.95L448.29 106.16V106.15ZM426.52 0.159973L480.11 66.71L533.53 0.359985L574.98 0.299988L500.86 92.48L575.1 184.67H533.53L385.08 0.149963H426.53L426.52 0.159973ZM830.24 105.74H844.27V159.81C844.25 164.78 843.17 169.03 841.07 172.6C838.95 176.17 836 178.9 832.23 180.83C828.47 182.73 824.08 183.71 819.08 183.71C814.51 183.71 810.41 182.89 806.76 181.28C803.11 179.67 800.22 177.26 798.09 174.09C795.94 170.92 794.89 166.96 794.89 162.23H808.95C808.97 164.3 809.44 166.1 810.34 167.6C811.24 169.1 812.49 170.24 814.07 171.05C815.68 171.85 817.53 172.26 819.61 172.26C821.86 172.26 823.8 171.79 825.36 170.84C826.93 169.91 828.13 168.51 828.97 166.65C829.78 164.81 830.21 162.53 830.24 159.82V105.75V105.74ZM902.02 126.89C901.68 123.61 900.17 121.05 897.56 119.24C894.92 117.4 891.51 116.49 887.32 116.49C884.38 116.49 881.85 116.93 879.75 117.8C877.65 118.69 876.02 119.87 874.9 121.37C873.79 122.87 873.23 124.58 873.18 126.51C873.18 128.12 873.57 129.51 874.32 130.68C875.07 131.86 876.08 132.86 877.39 133.66C878.68 134.48 880.11 135.16 881.68 135.71C883.27 136.26 884.86 136.73 886.44 137.11L893.76 138.91C896.7 139.59 899.56 140.5 902.28 141.66C905 142.8 907.47 144.26 909.64 146.02C911.81 147.78 913.53 149.89 914.79 152.36C916.06 154.83 916.7 157.73 916.7 161.07C916.7 165.57 915.54 169.53 913.2 172.95C910.86 176.35 907.49 179.02 903.07 180.94C898.67 182.84 893.35 183.82 887.08 183.82C880.81 183.82 875.75 182.89 871.31 181.03C866.85 179.19 863.37 176.48 860.86 172.93C858.35 169.38 857 165.04 856.8 159.95H870.71C870.9 162.61 871.76 164.83 873.22 166.63C874.7 168.41 876.63 169.72 878.99 170.61C881.37 171.48 884.03 171.92 886.97 171.92C889.91 171.92 892.74 171.45 895.08 170.55C897.4 169.64 899.22 168.37 900.53 166.72C901.86 165.09 902.53 163.17 902.55 160.97C902.53 158.96 901.93 157.29 900.77 155.98C899.59 154.67 897.96 153.57 895.88 152.68C893.78 151.79 891.33 150.99 888.54 150.29L879.66 148.05C873.24 146.42 868.16 143.95 864.44 140.63C860.71 137.31 858.86 132.91 858.86 127.39C858.86 122.86 860.1 118.89 862.62 115.49C865.11 112.09 868.52 109.44 872.83 107.56C877.16 105.66 882.06 104.73 887.51 104.73C892.96 104.73 897.9 105.66 902.08 107.56C906.26 109.44 909.55 112.06 911.93 115.4C914.31 118.74 915.56 122.57 915.62 126.9H902.01L902.02 126.89Z" fill="white"/>
</svg>
