<svg width="918" height="185" viewBox="0 0 918 185" fill="none" xmlns="http://www.w3.org/2000/svg">
<path d="M769.71 0.0900269V29.56H706.37V184.6H674.7V29.56H610.04V0.0900269H769.71ZM776.83 167.03C779.06 167.03 781.01 167.83 782.67 169.44C784.35 171.05 785.18 172.97 785.2 175.21C785.18 176.73 784.79 178.13 784.02 179.38C783.23 180.65 782.22 181.64 780.95 182.36C779.71 183.1 778.33 183.48 776.83 183.48C774.51 183.48 772.54 182.68 770.89 181.07C769.24 179.46 768.42 177.52 768.44 175.21C768.42 172.97 769.24 171.04 770.89 169.44C772.54 167.84 774.51 167.03 776.83 167.03ZM149.1 184.61L32.3199 39.46V184.54H0.649902V0.0200195H40.2399L187.78 183.23V29.57L187.77 0.0999756H347.44V29.57H219.45V76.98H322.38V106.45H219.45V155.14H347.44V184.61H149.11H149.1ZM448.94 106.17L469.7 131.98L427.17 184.84H385.6L448.94 106.18V106.17ZM427.17 0.179993L480.76 66.73L534.18 0.380005L575.63 0.320007L501.51 92.5L575.75 184.69H534.18L385.73 0.169983H427.18L427.17 0.179993ZM830.89 105.76H844.92V159.83C844.9 164.8 843.82 169.05 841.72 172.62C839.6 176.19 836.65 178.92 832.88 180.85C829.12 182.75 824.73 183.73 819.73 183.73C815.16 183.73 811.06 182.91 807.41 181.3C803.76 179.69 800.87 177.28 798.74 174.11C796.59 170.94 795.54 166.98 795.54 162.25H809.6C809.62 164.32 810.09 166.12 810.99 167.62C811.89 169.12 813.14 170.26 814.72 171.07C816.33 171.87 818.18 172.28 820.26 172.28C822.51 172.28 824.45 171.81 826.01 170.86C827.58 169.93 828.78 168.53 829.62 166.67C830.43 164.83 830.86 162.55 830.89 159.84V105.77V105.76ZM902.67 126.91C902.33 123.63 900.82 121.07 898.21 119.26C895.57 117.42 892.16 116.51 887.97 116.51C885.03 116.51 882.5 116.95 880.4 117.82C878.3 118.71 876.67 119.89 875.55 121.39C874.44 122.89 873.88 124.6 873.83 126.53C873.83 128.14 874.22 129.53 874.97 130.7C875.72 131.88 876.73 132.88 878.04 133.68C879.33 134.5 880.76 135.18 882.33 135.73C883.92 136.28 885.51 136.75 887.09 137.13L894.41 138.93C897.35 139.61 900.21 140.52 902.93 141.68C905.65 142.82 908.12 144.28 910.29 146.04C912.46 147.8 914.18 149.91 915.44 152.38C916.71 154.85 917.35 157.75 917.35 161.09C917.35 165.59 916.19 169.55 913.85 172.97C911.51 176.37 908.14 179.04 903.72 180.96C899.32 182.86 894 183.84 887.73 183.84C881.46 183.84 876.4 182.91 871.96 181.05C867.5 179.21 864.02 176.5 861.51 172.95C859 169.4 857.65 165.06 857.45 159.97H871.36C871.55 162.63 872.41 164.85 873.87 166.65C875.35 168.43 877.28 169.74 879.64 170.63C882.02 171.5 884.68 171.94 887.62 171.94C890.56 171.94 893.39 171.47 895.73 170.57C898.05 169.66 899.87 168.39 901.18 166.74C902.51 165.11 903.18 163.19 903.2 160.99C903.18 158.98 902.58 157.31 901.42 156C900.24 154.69 898.61 153.59 896.53 152.7C894.43 151.81 891.98 151.01 889.19 150.31L880.31 148.07C873.89 146.44 868.81 143.97 865.09 140.65C861.36 137.33 859.51 132.93 859.51 127.41C859.51 122.88 860.75 118.91 863.27 115.51C865.76 112.11 869.17 109.46 873.48 107.58C877.81 105.68 882.71 104.75 888.16 104.75C893.61 104.75 898.55 105.68 902.73 107.58C906.91 109.46 910.2 112.08 912.58 115.42C914.96 118.76 916.21 122.59 916.27 126.92H902.66L902.67 126.91Z" fill="black"/>
</svg>
