<svg width="1673" height="1825" viewBox="0 0 1673 1825" fill="none" xmlns="http://www.w3.org/2000/svg">
<path d="M1654.17 734.74C1654.17 625.455 1517.31 521.886 1307.48 457.659C1355.9 243.794 1334.38 73.6428 1239.55 19.1673C1217.69 6.38911 1192.14 0.336104 1164.23 0.336104V75.3241C1179.7 75.3241 1192.14 78.3506 1202.56 84.0668C1248.3 110.295 1268.14 210.167 1252.66 338.621C1248.97 370.23 1242.92 403.52 1235.52 437.483C1169.61 421.342 1097.65 408.901 1021.99 400.83C976.595 338.621 929.517 282.128 882.1 232.697C991.723 130.808 1094.62 74.9873 1164.57 74.9873V0C1072.09 0 951.037 65.9085 828.638 180.239C706.232 66.5807 585.18 1.3452 492.708 1.3452V76.3325C562.314 76.3325 665.546 131.817 775.169 233.033C728.091 282.465 681.013 338.621 636.288 400.83C560.291 408.901 488.332 421.342 422.426 437.819C414.688 404.193 408.974 371.574 404.936 340.302C389.138 211.848 408.635 111.977 454.037 85.4119C464.12 79.3589 477.234 76.6693 492.708 76.6693V1.6813C464.458 1.6813 438.9 7.7343 416.711 20.5125C322.217 74.9873 301.035 244.802 349.79 457.996C140.633 522.559 4.44537 625.794 4.44537 734.74C4.44537 844.033 141.306 947.603 351.136 1011.82C302.712 1225.69 324.232 1395.84 419.065 1450.32C440.923 1463.09 466.474 1469.15 494.723 1469.15C587.195 1469.15 708.255 1403.24 830.654 1288.91C953.052 1402.57 1074.11 1467.81 1166.58 1467.81C1194.83 1467.81 1220.38 1461.75 1242.58 1448.97C1337.07 1394.49 1358.26 1224.68 1309.49 1011.49C1517.98 947.264 1654.17 843.694 1654.17 734.74ZM1216.35 510.453C1203.91 553.834 1188.44 598.551 1170.95 643.276C1157.17 616.38 1142.71 589.476 1126.9 562.572C1111.44 535.673 1094.96 509.445 1078.48 483.888C1126.23 490.949 1172.3 499.693 1216.35 510.453ZM1062.34 868.575C1036.11 913.977 1009.21 957.017 981.302 997.034C931.194 1001.4 880.424 1003.76 829.308 1003.76C778.53 1003.76 727.753 1001.4 677.99 997.365C650.079 957.348 622.836 914.646 596.609 869.583C571.051 825.535 547.854 780.811 526.665 735.755C547.516 690.692 571.051 645.63 596.278 601.582C622.506 556.188 649.402 513.143 677.313 473.127C727.422 468.756 778.192 466.402 829.308 466.402C880.085 466.402 930.863 468.756 980.625 472.791C1008.54 512.807 1035.78 555.511 1062.01 600.574C1087.56 644.622 1110.76 689.346 1131.95 734.409C1110.76 779.465 1087.56 824.528 1062.34 868.575ZM1170.95 824.866C1188.6 868.688 1204.09 913.351 1217.36 958.694C1173.31 969.454 1126.9 978.537 1078.82 985.598C1095.29 959.709 1111.77 933.143 1127.24 905.901C1142.71 879.005 1157.17 851.762 1170.95 824.866ZM829.977 1183.66C798.704 1151.37 767.432 1115.39 736.497 1076.05C766.762 1077.4 797.697 1078.41 828.969 1078.41C860.58 1078.41 891.853 1077.74 922.456 1076.05C893.591 1113.56 862.72 1149.49 829.977 1183.66ZM579.796 985.598C532.049 978.537 485.978 969.792 441.931 959.032C454.367 915.654 469.842 870.929 487.324 826.204C501.115 853.108 515.574 880.012 531.372 906.909C547.178 933.812 563.322 960.04 579.796 985.598ZM828.3 285.827C859.573 318.108 890.845 354.089 921.779 393.432C891.514 392.087 860.58 391.079 829.308 391.079C797.697 391.079 766.424 391.751 735.828 393.432C764.69 355.924 795.559 320.003 828.3 285.827ZM579.458 483.888C562.983 509.781 546.508 536.345 531.041 563.579C515.574 590.483 501.115 617.387 487.324 644.284C469.671 600.462 454.185 555.797 440.923 510.453C484.971 500.029 531.372 490.949 579.458 483.888ZM275.139 904.893C156.102 854.116 79.0966 787.54 79.0966 734.74C79.0966 681.947 156.102 615.034 275.139 564.595C304.058 552.15 335.669 541.053 368.287 530.629C387.454 596.536 412.673 665.134 443.946 735.417C413.012 805.361 388.123 873.621 369.295 939.196C336.007 928.767 304.396 917.338 275.139 904.893ZM456.052 1385.42C410.32 1359.19 390.476 1259.32 405.951 1130.86C409.65 1099.26 415.696 1065.96 423.095 1032C489.009 1048.14 560.968 1060.59 636.627 1068.66C682.02 1130.86 729.099 1187.35 776.515 1236.79C666.892 1338.68 563.991 1394.49 494.047 1394.49C478.918 1394.16 466.143 1391.13 456.052 1385.42ZM1253.68 1129.19C1269.48 1257.64 1249.98 1357.51 1204.58 1384.07C1194.5 1390.13 1181.38 1392.82 1165.91 1392.82C1096.3 1392.82 993.069 1337.33 883.446 1236.12C930.524 1186.69 977.602 1130.53 1022.33 1068.32C1098.32 1060.25 1170.28 1047.8 1236.19 1031.33C1243.93 1065.29 1249.98 1097.91 1253.68 1129.19ZM1383.14 904.893C1354.22 917.338 1322.61 928.436 1289.99 938.858C1270.82 872.952 1245.6 804.353 1214.33 734.071C1245.27 664.127 1270.15 595.867 1288.98 530.292C1322.28 540.717 1353.88 552.15 1383.48 564.595C1502.51 615.365 1579.52 681.947 1579.52 734.74C1579.18 787.54 1502.18 854.454 1383.14 904.893Z" fill="#61DAFB"/>
<path d="M982.35 734.671C982.35 819.548 913.548 888.35 828.671 888.35C743.801 888.35 675 819.548 675 734.671C675 649.801 743.801 581 828.671 581C913.548 581 982.35 649.801 982.35 734.671Z" fill="#61DAFB"/>
<path d="M79.3559 1733.74H28.6273V1821.11H0V1605.14H71.4946C95.8201 1605.14 114.51 1610.68 127.563 1621.76C140.715 1632.83 147.291 1648.95 147.291 1670.11C147.291 1683.56 143.632 1695.27 136.314 1705.27C129.096 1715.25 119.009 1722.72 106.055 1727.66L156.784 1819.33V1821.11H126.228L79.3559 1733.74ZM28.6273 1710.45H72.3848C86.5256 1710.45 97.7488 1706.79 106.055 1699.48C114.46 1692.16 118.663 1682.37 118.663 1670.11C118.663 1656.76 114.658 1646.53 106.649 1639.4C98.7376 1632.28 87.267 1628.67 72.236 1628.58H28.6273V1710.45ZM249.641 1824.08C227.883 1824.08 210.182 1816.96 196.536 1802.72C182.889 1788.38 176.066 1769.24 176.066 1745.31V1740.27C176.066 1724.35 179.082 1710.16 185.114 1697.7C191.245 1685.14 199.75 1675.35 210.627 1668.33C221.604 1661.21 233.47 1657.65 246.226 1657.65C267.093 1657.65 283.312 1664.52 294.877 1678.26C306.449 1692.01 312.231 1711.69 312.231 1737.3V1748.72H203.507C203.903 1764.55 208.501 1777.35 217.302 1787.14C226.202 1796.83 237.475 1801.68 251.122 1801.68C260.814 1801.68 269.018 1799.7 275.74 1795.74C282.47 1791.79 288.35 1786.55 293.395 1780.02L310.156 1793.08C296.704 1813.74 276.537 1824.08 249.641 1824.08ZM246.226 1680.2C235.151 1680.2 225.856 1684.25 218.34 1692.36C210.825 1700.37 206.177 1711.64 204.397 1726.18H284.793V1724.1C284.004 1710.16 280.244 1699.38 273.522 1691.76C266.792 1684.05 257.694 1680.2 246.226 1680.2ZM443.209 1821.11C441.622 1817.94 440.337 1812.31 439.352 1804.2C426.591 1817.45 411.365 1824.08 393.665 1824.08C377.844 1824.08 364.843 1819.63 354.655 1810.72C344.571 1801.72 339.526 1790.35 339.526 1776.61C339.526 1759.9 345.857 1746.94 358.512 1737.75C371.265 1728.45 389.168 1723.8 412.207 1723.8H438.908V1711.2C438.908 1701.6 436.036 1693.99 430.306 1688.35C424.569 1682.62 416.11 1679.75 404.936 1679.75C395.146 1679.75 386.942 1682.22 380.318 1687.17C373.693 1692.11 370.377 1698.09 370.377 1705.12H342.789C342.789 1697.11 345.609 1689.39 351.241 1681.97C356.978 1674.46 364.693 1668.53 374.385 1664.17C384.175 1659.83 394.898 1657.65 406.568 1657.65C425.065 1657.65 439.547 1662.29 450.029 1671.59C460.511 1680.79 465.947 1693.5 466.346 1709.71V1783.58C466.346 1798.32 468.226 1810.03 471.985 1818.73V1821.11H443.209ZM397.672 1800.2C406.274 1800.2 414.433 1797.97 422.147 1793.52C429.855 1789.07 435.442 1783.29 438.908 1776.16V1743.24H417.395C383.777 1743.24 366.964 1753.07 366.964 1772.75C366.964 1781.35 369.836 1788.08 375.566 1792.93C381.303 1797.77 388.672 1800.2 397.672 1800.2ZM573.736 1801.68C583.526 1801.68 592.083 1798.71 599.399 1792.77C606.715 1786.84 610.768 1779.43 611.558 1770.53H637.521C637.025 1779.72 633.86 1788.47 628.025 1796.78C622.19 1805.09 614.377 1811.72 604.587 1816.66C594.895 1821.6 584.616 1824.08 573.736 1824.08C551.885 1824.08 534.478 1816.81 521.522 1802.27C508.672 1787.63 502.243 1767.66 502.243 1742.34V1737.75C502.243 1722.12 505.107 1708.23 510.845 1696.07C516.582 1683.9 524.785 1674.46 535.47 1667.74C546.245 1661.01 558.953 1657.65 573.585 1657.65C591.586 1657.65 606.52 1663.04 618.385 1673.82C630.348 1684.6 636.724 1698.59 637.521 1715.79H611.558C610.768 1705.41 606.813 1696.9 599.692 1690.28C592.677 1683.56 583.969 1680.2 573.585 1680.2C559.645 1680.2 548.817 1685.23 541.102 1695.33C533.493 1705.31 529.68 1719.8 529.68 1738.79V1743.97C529.68 1762.46 533.493 1776.71 541.102 1786.69C548.719 1796.68 559.599 1801.68 573.736 1801.68ZM705.601 1621.76V1660.62H735.565V1681.83H705.601V1781.35C705.601 1787.78 706.939 1792.62 709.609 1795.89C712.278 1799.05 716.827 1800.64 723.256 1800.64C726.414 1800.64 730.768 1800.05 736.302 1798.86V1821.11C729.084 1823.08 722.068 1824.08 715.241 1824.08C702.984 1824.08 693.735 1820.36 687.502 1812.95C681.276 1805.53 678.163 1795 678.163 1781.35V1681.83H648.936V1660.62H678.163V1621.76H705.601ZM1013.39 1821.11H984.753L876.032 1654.68V1821.11H847.406V1605.14H876.032L985.054 1772.31V1605.14H1013.39V1821.11ZM1158.75 1821.11C1157.16 1817.94 1155.88 1812.31 1154.89 1804.2C1142.13 1817.45 1126.9 1824.08 1109.2 1824.08C1093.38 1824.08 1080.38 1819.63 1070.19 1810.72C1060.11 1801.72 1055.07 1790.35 1055.07 1776.61C1055.07 1759.9 1061.39 1746.94 1074.05 1737.75C1086.8 1728.45 1104.71 1723.8 1127.75 1723.8H1154.45V1711.2C1154.45 1701.6 1151.58 1693.99 1145.84 1688.35C1140.11 1682.62 1131.65 1679.75 1120.48 1679.75C1110.69 1679.75 1102.48 1682.22 1095.86 1687.17C1089.23 1692.11 1085.92 1698.09 1085.92 1705.12H1058.33C1058.33 1697.11 1061.15 1689.39 1066.78 1681.97C1072.52 1674.46 1080.23 1668.53 1089.93 1664.17C1099.72 1659.83 1110.44 1657.65 1122.11 1657.65C1140.6 1657.65 1155.09 1662.29 1165.57 1671.59C1176.05 1680.79 1181.49 1693.5 1181.89 1709.71V1783.58C1181.89 1798.32 1183.77 1810.03 1187.52 1818.73V1821.11H1158.75ZM1113.21 1800.2C1121.81 1800.2 1129.97 1797.97 1137.69 1793.52C1145.39 1789.07 1150.98 1783.29 1154.45 1776.16V1743.24H1132.94C1099.32 1743.24 1082.5 1753.07 1082.5 1772.75C1082.5 1781.35 1085.38 1788.08 1091.11 1792.93C1096.84 1797.77 1104.21 1800.2 1113.21 1800.2ZM1262.13 1621.76V1660.62H1292.1V1681.83H1262.13V1781.35C1262.13 1787.78 1263.47 1792.62 1266.14 1795.89C1268.81 1799.05 1273.36 1800.64 1279.79 1800.64C1282.94 1800.64 1287.3 1800.05 1292.84 1798.86V1821.11C1285.61 1823.08 1278.6 1824.08 1271.77 1824.08C1259.51 1824.08 1250.27 1820.36 1244.03 1812.95C1237.81 1805.53 1234.69 1795 1234.69 1781.35V1681.83H1205.47V1660.62H1234.69V1621.76H1262.13ZM1354.1 1821.11H1326.65V1660.62H1354.1V1821.11ZM1324.43 1618.04C1324.43 1613.6 1325.77 1609.84 1328.44 1606.77C1331.2 1603.7 1335.26 1602.18 1340.59 1602.18C1345.94 1602.18 1349.99 1603.7 1352.76 1606.77C1355.53 1609.84 1356.91 1613.6 1356.91 1618.04C1356.91 1622.49 1355.53 1626.2 1352.76 1629.17C1349.99 1632.13 1345.94 1633.62 1340.59 1633.62C1335.26 1633.62 1331.2 1632.13 1328.44 1629.17C1325.77 1626.2 1324.43 1622.49 1324.43 1618.04ZM1451.1 1783.88L1490.85 1660.62H1518.89L1461.34 1821.11H1440.42L1382.28 1660.62H1410.31L1451.1 1783.88ZM1609.81 1824.08C1588.06 1824.08 1570.36 1816.96 1556.71 1802.72C1543.07 1788.38 1536.25 1769.24 1536.25 1745.31V1740.27C1536.25 1724.35 1539.26 1710.16 1545.29 1697.7C1551.42 1685.14 1559.92 1675.35 1570.8 1668.33C1581.78 1661.21 1593.65 1657.65 1606.4 1657.65C1627.27 1657.65 1643.48 1664.52 1655.06 1678.26C1666.62 1692.01 1672.41 1711.69 1672.41 1737.3V1748.72H1563.68C1564.08 1764.55 1568.68 1777.35 1577.48 1787.14C1586.38 1796.83 1597.66 1801.68 1611.3 1801.68C1620.99 1801.68 1629.2 1799.7 1635.92 1795.74C1642.64 1791.79 1648.53 1786.55 1653.58 1780.02L1670.34 1793.08C1656.88 1813.74 1636.71 1824.08 1609.81 1824.08ZM1606.4 1680.2C1595.33 1680.2 1586.03 1684.25 1578.52 1692.36C1571 1700.37 1566.35 1711.64 1564.58 1726.18H1644.97V1724.1C1644.18 1710.16 1640.42 1699.38 1633.7 1691.76C1626.97 1684.05 1617.87 1680.2 1606.4 1680.2Z" fill="white"/>
</svg>
